<svg width="286" height="324" viewBox="0 0 286 324" fill="none" xmlns="http://www.w3.org/2000/svg">
<g clip-path="url(#clip0_2062_45)">
<path d="M140 84.3506C141.856 83.2789 144.144 83.2789 146 84.3506L208.746 120.577C210.602 121.649 211.746 123.63 211.746 125.773V198.227C211.746 200.37 210.602 202.351 208.746 203.423L146 239.649C144.144 240.721 141.856 240.721 140 239.649L77.2539 203.423C75.3975 202.351 74.2539 200.37 74.2539 198.227V125.773C74.2539 123.63 75.3975 121.649 77.2539 120.577L140 84.3506Z" stroke="#FDF7FA" stroke-width="8"/>
<line x1="209" y1="124.732" x2="143.182" y2="162.732" stroke="#FDF7FA" stroke-width="4"/>
<line x1="143" y1="238" x2="143" y2="162" stroke="#FDF7FA" stroke-width="4"/>
<line x1="142.818" y1="162.732" x2="77.0004" y2="124.732" stroke="#FDF7FA" stroke-width="4"/>
<path d="M140 84.3506C141.856 83.2789 144.144 83.2789 146 84.3506L208.746 120.577C210.602 121.649 211.746 123.63 211.746 125.773V198.227C211.746 200.37 210.602 202.351 208.746 203.423L146 239.649C144.144 240.721 141.856 240.721 140 239.649L77.2539 203.423C75.3975 202.351 74.2539 200.37 74.2539 198.227V125.773C74.2539 123.63 75.3975 121.649 77.2539 120.577L140 84.3506Z" stroke="#FDF7FA" stroke-width="8"/>
<path d="M141.75 17.9287C142.523 17.4822 143.477 17.4822 144.25 17.9287L267.145 88.8818C267.918 89.3284 268.394 90.1538 268.395 91.0469V232.953C268.394 233.846 267.918 234.672 267.145 235.118L144.25 306.071C143.477 306.518 142.523 306.518 141.75 306.071L18.8555 235.118C18.0821 234.672 17.6055 233.846 17.6055 232.953V91.0469C17.6055 90.1538 18.0821 89.3284 18.8555 88.8818L141.75 17.9287Z" stroke="#FDF7FA" stroke-width="35"/>
</g>
<defs>
<clipPath id="clip0_2062_45">
<rect width="286" height="324" fill="white"/>
</clipPath>
</defs>
</svg>
